<svg width="121" height="121" viewBox="0 0 121 121" fill="none" xmlns="http://www.w3.org/2000/svg">
<path d="M62.1354 0.573007C68.7729 2.84056 72.5847 6.88913 76.0343 12.7764C77.5511 16.5834 77.5511 16.5834 77.5511 19.2905C79.5116 18.2855 79.5116 18.2855 81.5117 17.2602C88.5938 14.1965 97.2275 13.8411 104.517 16.5834C107.402 25.2736 105.808 34.7418 104.517 43.6551C105.233 44.0651 105.949 44.4751 106.687 44.8976C117.387 51.2685 117.387 51.2685 120.696 57.1909C121.033 61.0825 121.033 61.0825 119.348 65.3124C114.701 70.4642 110.157 74.9271 103.168 76.1411C103.836 78.1093 103.836 78.1093 104.517 80.1172C106.586 87.3665 107.208 96.0438 104.517 103.213C100.235 104.646 97.0472 104.792 92.5508 104.82C91.1638 104.839 89.7769 104.859 88.3479 104.878C84.2189 104.561 81.2825 103.608 77.5511 101.859C77.273 102.78 76.9949 103.702 76.7084 104.651C73.6512 111.208 69.3326 116.251 63.4784 120.471C58.6625 120.943 56.5155 119.22 52.808 116.262C49.259 112.716 47.3278 109.111 45.1923 104.566C45.1923 103.673 45.1923 102.78 45.1923 101.859C44.2503 102.301 43.3083 102.742 42.3377 103.197C38.0346 104.713 34.7383 104.883 30.1926 104.82C28.7988 104.811 27.4049 104.803 25.9687 104.794C22.2715 104.566 22.2715 104.566 18.2266 103.213C16.3357 99.416 16.6494 96.1944 16.6255 91.9611C16.6064 90.4309 16.5873 88.9006 16.5676 87.324C16.8719 83.001 17.7366 80.0291 19.5749 76.1411C18.1567 76.0155 18.1567 76.0155 16.7098 75.8873C10.2168 74.0451 6.19071 69.8353 2.04723 64.6356C0.698947 61.2517 0.698947 61.2517 1.12029 58.0369C4.8872 52.1542 10.438 46.1791 17.226 44.0569C18.0011 43.9243 18.7763 43.7917 19.5749 43.6551C19.13 42.6221 18.685 41.5892 18.2266 40.5249C16.1231 32.7375 15.6642 24.3008 18.2266 16.5834C27.2072 13.5781 36.4055 14.8687 45.1923 17.937C45.4148 16.7923 45.6372 15.6477 45.8664 14.4684C48.7058 7.93604 54.3489 0.0494917 62.1354 0.573007Z" fill="#A4221A"/>
<path d="M58.6751 12.5226C63.1263 12.8849 64.911 13.2811 67.8603 16.7526C71.2824 25.0703 69.0852 32.6491 66.7648 40.9479C68.5446 41.3946 70.3243 41.8413 72.158 42.3015C72.6012 41.2467 72.6012 41.2467 73.0533 40.1706C76.2241 33.17 79.0924 28.8298 85.6408 24.7049C90.7811 24.1973 90.7811 24.1973 95.0788 24.7049C96.4271 26.0585 96.4271 26.0585 96.9327 30.373C96.3261 36.5644 94.357 39.7896 89.6856 43.6551C86.1981 45.7455 82.6399 47.4853 78.8994 49.0694C79.5668 52.4195 79.5668 52.4195 80.2477 55.8373C80.9985 55.5285 81.7493 55.2196 82.5229 54.9014C90.133 52.0235 95.2127 51.2349 103.168 53.1301C106.539 55.2451 106.539 55.2451 108.562 57.1909C108.128 61.2172 107.851 63.3548 104.864 66.1848C99.6325 69.3381 94.2534 68.748 88.3374 68.0196C83.4498 65.9892 83.4498 65.9892 80.2477 63.9588C79.3578 66.6389 78.4679 69.319 77.5511 72.0803C78.9693 72.4153 80.3875 72.7503 81.8487 73.0955C87.7655 74.803 91.9284 77.6173 95.5001 82.7398C96.7186 86.521 96.6891 89.7918 96.4271 93.7377C95.0788 95.0913 95.0788 95.0913 90.6969 95.4297C85.2111 95.0625 83.0752 94.5429 78.8994 91.0305C75.7745 86.6939 73.5062 82.9833 73.5062 77.4947C69.5018 78.1647 69.5018 78.1647 65.4165 78.8482C66.0839 80.4396 66.7513 82.0309 67.439 83.6704C69.958 90.4865 70.7977 96.1336 67.776 102.959C65.3518 106.001 63.616 107.259 60.0234 108.627C53.3657 102.159 53.3657 102.159 53.0292 95.5143C53.0795 89.9859 54.2425 85.4306 55.9786 80.2018C53.7539 79.3085 51.5292 78.4151 49.2371 77.4947C48.9312 78.6672 48.6254 79.8397 48.3102 81.0478C46.0542 86.8717 42.8689 92.1968 37.1026 95.0913C33.4995 95.2728 29.9263 95.1497 26.3163 95.0913C25.7412 88.3935 25.5008 85.5389 29.1814 79.7788C33.4399 75.7824 37.7655 72.0803 43.844 72.0803C42.9541 69.8469 42.0643 67.6135 41.1474 65.3124C39.187 65.9824 39.187 65.9824 37.1869 66.666C31.3422 68.2965 25.5872 69.1816 19.5749 68.0196C15.4458 64.6356 15.4458 64.6356 12.8335 61.2517C14.7205 56.6734 16.5152 54.1057 20.9232 51.7766C29.2613 50.9395 34.8432 52.5448 42.4957 55.8373C42.9407 53.1572 43.3856 50.4771 43.844 47.7158C42.8985 47.6041 41.953 47.4925 40.9789 47.3774C35.2929 45.8883 30.7453 43.2405 27.159 38.4945C25.9583 34.2755 26.0707 30.4156 26.3163 26.0585C26.7613 25.6118 27.2062 25.1651 27.6646 24.7049C34.0865 24.9198 37.1741 25.033 42.2429 29.104C49.2371 37.9313 49.2371 37.9313 49.2371 43.6551C51.9067 42.7617 54.5763 41.8683 57.3268 40.9479C56.6594 39.887 55.992 38.8261 55.3044 37.7331C52.7079 31.4336 52.2215 26.0259 53.282 19.2905C55.9786 15.0606 55.9786 15.0606 58.6751 12.5226Z" fill="#F6C344"/>
<path d="M66.7648 50.423C70.2198 52.538 70.2198 52.538 72.158 55.8373C72.158 61.1088 71.538 64.2156 68.6187 68.6118C64.1198 71.5832 61.2564 71.4837 55.9786 70.7267C52.6921 68.6118 52.6921 68.6118 50.5854 65.3124C49.8331 60.0251 49.7981 57.1217 52.6079 52.538C57.3568 49.5582 61.3092 49.3365 66.7648 50.423Z" fill="white"/>
</svg>
